# xmcd
#
# Track frame offsets:
#	150
#	11018
#	22844
#	35724
#	46379
#	61610
#	72621
#	82613
#	97370
#	106528
#	119502
#	131836
#	143494
#
# Disc length: 2078 seconds
#
# Revision: 0
# Processed by: cddbd v1.5.2PL0 Copyright (c) Steve Scherf et al.
# Submitted via: EZCDAudioConverter 8.3.2.1
#
DISCID=a8081c0d
DTITLE=LORETTA LYNN and ERNEST TUBB  - IF WE PUT OUR HEADS TOGETHER 1969
DYEAR=1969
DGENRE=
TTITLE0=LORETTA LYNN and ERNEST TUBB 
TTITLE1=HOLDING ON TO NOTHING
TTITLE2=SOMEWHERE BETWEEN
TTITLE3=	CHASED YOU TILL YOU CAUGHT ME
TTITLE4=LET'S WAIT A LITTLE LONGER
TTITLE5=WON'T YOU COME HOME (AND TALK TO A STRANGER)
TTITLE6=LET THE WORLD KEEP ON A TURNIN'
TTITLE7=IF WE PUT OUR HEADS TOGETHER (OUR HEARTS WILL TELL US WHAT TO DO]\nIF 
TTITLE7=WE PUT OUR HEADS TOGETHER (OUR HEARTS WILL TELL US WHAT TO DO]\nIF WE 
TTITLE7=PUT OUR HEADS TOGETHER (OUR HEARTS WILL TELL US WHAT TO DO]\nIF WE PUT
TTITLE7=OUR HEADS TOGETHER (OUR HEARTS WILL TELL US WHAT TO DO]\nIF WE PUT OU
TTITLE7=R HEADS TOGETHER (OUR HEARTS WILL TELL US WHAT TO DO]\n
TTITLE8=	THAT ODD COUPLE
TTITLE9=	TOUCH AND GO
TTITLE10=I WON'T CHEAT AGAIN ON YOU (IF YOU WON'T CHEAT ON ME)
TTITLE11=ANSWER THE PHONE
TTITLE12=THANKS A LOT
EXTD=
EXTT0=
EXTT1=
EXTT2=
EXTT3=
EXTT4=
EXTT5=
EXTT6=
EXTT7=
EXTT8=
EXTT9=
EXTT10=
EXTT11=
EXTT12=
PLAYORDER=
